<svg xmlns="http://www.w3.org/2000/svg" height="24" viewBox="0 96 960 960" width="24"><path d="M798.239 943.413q-130.674 0-254.489-58.217-123.815-58.218-219.511-153.913-95.696-95.696-153.913-219.511-58.217-123.815-58.217-254.489 0-21.28 14.186-35.466 14.186-14.187 35.466-14.187h161.761q19.5 0 33.369 11.152 13.87 11.153 17.305 29.935l25.761 134.979q2.956 17.826-.5 31.956-3.457 14.131-15.087 25.044l-98.435 96.087q40.087 67.695 99.88 126.989 59.794 59.293 130.772 102.663l95.674-94.957q11.63-11.391 28.522-16.489 16.891-5.098 34.478-1.902l131.543 27.282q19.022 4.435 30.055 17.446 11.032 13.011 11.032 32.033v163.674q0 21.382-14.186 35.637-14.186 14.254-35.466 14.254ZM242.435 451.935l65.761-63.848-16.522-89.457h-87.326q4.522 39.327 13.153 77.639t24.934 75.666Zm358.717 358.717q37.565 16.283 76.75 26.044 39.185 9.76 78.989 13.239V763.13l-89.217-18.521-66.522 66.043ZM242.435 451.935Zm358.717 358.717Z"/></svg>