<svg xmlns="http://www.w3.org/2000/svg" height="24" viewBox="0 96 960 960" width="24"><path d="M479.949 577.913q33.768 0 57.866-24.047t24.098-57.815q0-33.768-24.047-57.866t-57.815-24.098q-33.768 0-57.866 24.047t-24.098 57.815q0 33.768 24.047 57.866t57.815 24.098ZM480 862.587q119.204-109.821 176.852-199.541 57.648-89.72 57.648-159.123 0-106.549-67.892-174.486Q578.717 261.5 480.054 261.5t-166.608 67.937Q245.5 397.374 245.5 503.923q0 69.403 57.648 159.123Q360.796 752.766 480 862.587Zm0 120.587Q316.37 843.783 235.435 724.605 154.5 605.428 154.5 504q0-152.515 98.152-243.008Q350.804 170.5 479.978 170.5q129.174 0 227.348 90.492Q805.5 351.485 805.5 504q0 101.428-80.935 220.605Q643.63 843.783 480 983.174ZM480 504Z"/></svg>